<svg id="Calque_1" data-name="Calque 1" 
    xmlns="http://www.w3.org/2000/svg" 
    xmlns:xlink="http://www.w3.org/1999/xlink" viewBox="0 0 75.91 70.87">
    <defs>
        <clipPath id="clip-path" transform="translate(0 0.01)">
            <path d="M14.79,11.57a35.06,35.06,0,0,0,1.82,49.55l.79.71H63.55a35.17,35.17,0,0,0,9.18-12.62V21.65a35.08,35.08,0,0,0-6.57-10.09Z" fill="none"/>
        </clipPath>
    </defs>
    <g id="Calque_2" data-name="Calque 2">
        <g id="Calque_1-2" data-name="Calque 1-2">
            <path d="M40.48,70.49A35.06,35.06,0,1,0,5.42,35.43h0A35.06,35.06,0,0,0,40.48,70.49" transform="translate(0 0.01)" fill="#fff"/>
            <g clip-path="url(#clip-path)">
                <path d="M46.88,26.72s-4.79-5-10.22-3l.64,2.08-5.21-1.64,3.24-4.28.63,2s5.6-2.78,11.55,2.57Z" transform="translate(0 0.01)" fill="#f28e6c"/>
                <path d="M41.08,41.39h-.49c-1.11,0-2-8-2-9.11v-6.9a2,2,0,0,1,2-2h.49a2,2,0,0,1,2,2v6.9C43.11,33.38,42.19,41.39,41.08,41.39Z" transform="translate(0 0.01)" fill="none" stroke="#008dcc" stroke-width="0.94"/>
                <path d="M68.7,47.19c0,6.44-12.87,11.66-28.75,11.66S11.19,53.63,11.19,47.19s13.52-14.68,29.4-14.68S68.7,40.75,68.7,47.19" transform="translate(0 0.01)" fill="#fff"/>
                <path d="M68.7,47.19c0,6.44-12.87,11.66-28.75,11.66S11.19,53.63,11.19,47.19s13.52-14.68,29.4-14.68S68.7,40.75,68.7,47.19Z" transform="translate(0 0.01)" fill="none" stroke="#008dcc" stroke-width="1.06"/>
                <path d="M11.8,49.57C8.59,45.57,24.07,42.2,40,42.2s30,3.69,28.34,7" transform="translate(0 0.01)" fill="none" stroke="#008dcc" stroke-width="0.94"/>
                <path d="M43.28,17.13v7.41a1.49,1.49,0,0,1-.5,1.11A2.52,2.52,0,0,1,38.41,24V20.32a1.49,1.49,0,0,0-1.5-1.47H.54V14.57H41.1a2.57,2.57,0,0,1,2.18,2.55" transform="translate(0 0.01)" fill="#fff"/>
                <path d="M43.28,17.13v7.41a1.49,1.49,0,0,1-.5,1.11A2.52,2.52,0,0,1,38.41,24V20.32a1.49,1.49,0,0,0-1.5-1.47H.54V14.57H41.1A2.57,2.57,0,0,1,43.28,17.13Z" transform="translate(0 0.01)" fill="none" stroke="#008dcc" stroke-width="1.07"/>
                <path d="M33.84,25.88s4.79,5,10.22,3l-.63-2.08,5.21,1.64L45.4,32.73l-.63-2s-5.6,2.78-11.55-2.57Z" transform="translate(0 0.01)" fill="#f28e6c"/>
            </g>
            <circle cx="40.47" cy="35.44" r="35.06" fill="none" stroke="#008dcc" stroke-width="0.75"/>
        </g>
    </g>
</svg>